<?xml version="1.0" encoding="utf-8"?>
<!-- Generator: Adobe Illustrator 25.0.0, SVG Export Plug-In . SVG Version: 6.00 Build 0)  -->
<svg version="1.1" id="Layer_1" xmlns="http://www.w3.org/2000/svg" xmlns:xlink="http://www.w3.org/1999/xlink" x="0px" y="0px"
	 viewBox="0 0 100 100" style="enable-background:new 0 0 100 100;" xml:space="preserve">
<style type="text/css">
	.st0{fill:#0099FF;}
	.st1{fill:#FFFFFF;}
</style>
<circle class="st0" cx="50" cy="50" r="48"/>
<path class="st1" d="M64.4,26.6H35.6c-5,0-9,4-9,9v28.8c0,5,4,9,9,9h28.8c5,0,9-4,9-9V35.6C73.4,30.6,69.4,26.6,64.4,26.6L64.4,26.6
	z M67,32h1v8h-8v-8H67z M43.4,45.2c1.4-2,4-3.4,6.6-3.4s5.2,1.4,6.6,3.4c1,1.4,1.6,3,1.6,4.8c0,4.6-3.8,8.2-8.2,8.2
	c-4.4,0-8.2-3.6-8.2-8.2C41.8,48.2,42.4,46.6,43.4,45.2z M68.8,64.4c0,2.4-2,4.4-4.4,4.4H35.6c-2.4,0-4.4-2-4.4-4.4V45.2h7
	c-0.6,1.4-1,3.2-1,4.8c0,7,5.8,12.8,12.8,12.8S62.8,57,62.8,50c0-1.6-0.4-3.4-1-4.8h7L68.8,64.4z"/>
</svg>
